<?xml version="1.0" encoding="UTF-8" standalone="no"?>
<!-- Created with Inkscape (http://www.inkscape.org/) -->

<svg
   width="210mm"
   height="297mm"
   viewBox="0 0 210 297"
   version="1.1"
   id="svg1"
   xml:space="preserve"
   inkscape:version="1.4 (86a8ad7, 2024-10-11)"
   sodipodi:docname="Logo.svg"
   xmlns:inkscape="http://www.inkscape.org/namespaces/inkscape"
   xmlns:sodipodi="http://sodipodi.sourceforge.net/DTD/sodipodi-0.dtd"
   xmlns="http://www.w3.org/2000/svg"
   xmlns:svg="http://www.w3.org/2000/svg"><sodipodi:namedview
     id="namedview1"
     pagecolor="#ffffff"
     bordercolor="#000000"
     borderopacity="0.25"
     inkscape:showpageshadow="2"
     inkscape:pageopacity="0.0"
     inkscape:pagecheckerboard="0"
     inkscape:deskcolor="#d1d1d1"
     inkscape:document-units="mm"
     inkscape:zoom="0.72604517"
     inkscape:cx="561.25984"
     inkscape:cy="637.0127"
     inkscape:window-width="1920"
     inkscape:window-height="1017"
     inkscape:window-x="1072"
     inkscape:window-y="364"
     inkscape:window-maximized="1"
     inkscape:current-layer="layer1" /><defs
     id="defs1" /><g
     inkscape:label="Capa 1"
     inkscape:groupmode="layer"
     id="layer1"><path
       style="fill:#000000"
       d="m 51.472552,240.59301 c -0.668469,-0.66847 2.128527,-9.99057 6.1949,-20.64697 1.978142,-5.18395 1.961146,-5.08438 0.829787,-4.86129 -2.836434,0.55931 -6.222202,3.28351 -7.006977,5.63783 -0.946553,2.83966 -2.98236,2.58594 -2.980055,-0.3714 0.0062,-7.89517 21.188524,-12.52885 25.487493,-5.57543 4.264642,6.89789 -3.184579,15.59805 -14.137395,16.51148 -2.522801,0.2104 -2.267308,-0.0979 -3.808609,4.59619 -1.561621,4.75601 -3.026309,6.26242 -4.579144,4.70959 z m 10.73157,-11.9871 c 5.503497,-1.29758 8.92697,-5.06656 8.92697,-9.8279 0,-3.79972 -3.339857,-6.01236 -7.181697,-4.75785 -0.678816,0.22166 -4.75176,10.67157 -5.505032,14.1242 l -0.187607,0.8599 1.145502,-0.004 c 0.630026,-0.002 1.890865,-0.17964 2.801864,-0.39443 z m 13.16081,12.01941 c -8.580829,-2.13332 -2.523856,-17.4419 6.90105,-17.4419 8.25509,0 2.88468,10.00989 -6.04166,11.26102 -1.730819,0.24259 -1.763534,2.33552 -0.054,3.45564 2.96389,1.942 11.60854,-3.04206 12.54438,-7.23246 2.48088,-11.10861 10.12673,-20.67606 13.682058,-17.12072 2.755,2.755 -3.518048,14.40268 -10.177258,18.89694 -0.75509,0.5096 -1.10761,3.94185 -0.51634,5.02708 1.68307,3.08913 9.231368,-3.08974 11.959248,-9.78958 1.6541,-4.06256 1.77628,-4.23333 3.02886,-4.23333 1.68064,0 1.75634,0.37892 0.66777,3.34227 -3.56571,9.70671 -3.77412,11.20981 -1.5543,11.20981 2.35243,0 6.14971,-4.76029 8.74091,-10.95765 1.41185,-3.37671 1.64073,-3.68263 2.75525,-3.68263 1.8369,0 1.82682,0.26887 -0.23847,6.36117 -1.91559,5.65067 -2.26911,7.54332 -1.46653,7.8513 1.41241,0.54199 5.17369,-2.83365 6.74807,-6.05621 2.82699,-5.78646 9.37119,-9.69479 13.07304,-7.80748 0.56655,0.28884 1.05544,0.4972 1.08643,0.46302 0.031,-0.0342 0.89547,-2.22771 1.92106,-4.87451 2.56241,-6.61292 2.77478,-6.96159 4.24011,-6.96159 1.75196,0 1.60906,0.9089 -1.32017,8.39655 -4.2061,10.75159 -5.71587,15.86535 -4.91923,16.66198 0.84644,0.84645 4.99722,-2.64453 6.15117,-5.1734 0.2428,-0.53208 0.68951,-1.50321 0.99268,-2.15805 3.74156,-8.08155 14.43648,-8.83892 13.88034,-0.98294 -0.18703,2.64184 1.38201,2.97868 3.78067,0.81164 1.13581,-1.02614 1.92888,-1.08052 2.06259,-0.14143 0.21968,1.54292 -2.14677,3.20522 -4.87467,3.42419 l -1.72435,0.13841 -0.80395,1.5926 c -3.32713,6.59102 -12.40706,7.9446 -13.359,1.99148 -0.19692,-1.23144 0.09,-1.33947 -2.08759,0.78606 -4.6705,4.55885 -9.03559,3.70888 -7.55025,-1.4702 0.31985,-1.11525 0.0442,-1.0865 -0.74901,0.0781 -3.54354,5.20302 -10.60961,5.7869 -10.60961,0.87669 0,-0.90154 -0.27058,-0.95417 -0.95118,-0.18501 -4.72194,5.33637 -9.93086,4.59368 -8.58213,-1.22364 0.33426,-1.44168 0.21057,-1.42728 -0.76228,0.0888 -3.92608,6.11828 -10.97081,6.55035 -10.15838,0.62304 l 0.16262,-1.1864 -2.077898,1.74141 c -5.87515,4.92374 -10.24379,4.81196 -11.09238,-0.28382 l -0.18755,-1.12623 -1.21706,1.07129 c -3.53494,3.11158 -8.15474,4.72142 -11.30304,3.9387 z m 74.723008,-2.74653 c 1.08874,-0.563 3.06637,-2.86774 3.86977,-4.50983 l 0.69745,-1.42554 -0.80442,-1.00656 c -0.9243,-1.15655 -1.37002,-2.8075 -1.16687,-4.32207 0.23506,-1.75253 -1.72367,-1.107 -3.98874,1.31454 -4.51966,4.83188 -3.4525,12.45508 1.39281,9.94946 z m -21.3644,-0.74773 c 1.66927,-1.26688 3.73801,-4.13385 5.45365,-7.55794 l 1.50465,-3.003 -0.62083,-0.50273 c -2.84462,-2.30343 -9.5337,3.69503 -10.01284,8.97904 -0.27106,2.98931 1.30528,3.88339 3.67537,2.08463 z m -50.121818,-5.35045 c 4.02441,-1.82128 6.32483,-6.20912 3.36937,-6.42674 -2.19706,-0.16178 -4.95788,2.70442 -6.49221,6.74001 -0.319232,0.83964 0.83007,0.72435 3.12284,-0.31327 z m 18.11302,-6.8774 c 3.915208,-5.27566 5.607468,-12.16852 2.16937,-8.83618 -1.41779,1.37418 -6.18948,11.49142 -6.18948,13.12333 0,0.4152 2.54283,-2.29654 4.02011,-4.28715 z M 54.859218,207.94584 c -3.028421,-0.55624 -3.96875,-1.05409 -3.96875,-2.10124 0,-0.8923 0.620457,-1.2578 1.797592,-1.05892 1.378058,0.23282 1.320918,0.33215 3.587068,-6.23564 1.077655,-3.12328 2.819104,-7.96913 3.869886,-10.76856 1.050783,-2.79943 1.842893,-5.26609 1.760246,-5.48146 -0.356071,-0.92791 -2.374798,-0.20607 -4.363657,1.56032 -1.521008,1.35087 -1.864087,1.45195 -2.509086,0.73923 -3.545871,-3.91814 12.186152,-8.49261 18.659638,-5.42574 10.631857,5.03693 6.352747,22.44933 -6.693227,27.23585 -3.453608,1.26712 -9.463774,2.02764 -12.13971,1.53616 z m 8.874099,-3.16116 c 13.490085,-3.48235 17.159595,-25.19293 4.019439,-23.78092 -1.811051,0.19461 -1.607106,-0.10253 -3.489943,5.08485 -7.263791,20.01241 -7.275832,20.43758 -0.529496,18.69607 z m 42.126733,2.14726 c -1.98816,-0.70958 -3.62867,-2.7312 -3.63784,-4.48295 -0.002,-0.409 -0.17731,-0.33595 -1.02004,0.42541 -4.688138,4.23545 -10.436448,5.22991 -12.061868,2.0867 -1.13887,-2.20233 0.57656,-3.18705 2.36371,-1.35684 1.32606,1.35801 2.21942,1.40537 3.4423,0.18249 1.60416,-1.60416 1.52807,-3.47806 -0.31617,-7.78695 l -0.4803,-1.12216 -1.88656,2.84196 c -6.79824,10.241 -14.60512,12.82594 -12.54552,4.15396 2.24501,-9.45271 4.08508,-13.10772 6.19505,-12.30551 0.99114,0.37683 0.92745,0.7911 -0.99865,6.49558 -1.75945,5.21091 -2.15288,6.88543 -1.76454,7.51029 0.96521,1.55308 6.55843,-4.7749 9.09379,-10.28841 1.42369,-3.09601 2.36778,-3.83646 4.89156,-3.83646 2.46714,0 2.82711,0.48728 1.29371,1.75124 -1.41846,1.16921 -1.43759,1.83639 -0.15109,5.26888 0.6164,1.64458 1.12586,3.479 1.13941,4.10265 0.02,0.91932 0.0979,1.08769 0.42138,0.90997 0.935358,-0.51396 2.597928,-2.60901 3.039878,-3.83066 2.75959,-7.62804 13.89345,-11.60706 13.89345,-4.96524 0,3.59154 -3.79525,7.05202 -8.86354,8.08171 l -1.85208,0.37628 0.0226,1.09513 c 0.0717,3.46766 4.70616,3.49487 9.0602,0.0532 2.54545,-2.01206 3.6128,-3.69151 4.96743,-7.81608 1.37673,-4.19186 1.84972,-4.89479 3.29367,-4.89479 1.91248,0 1.83732,0.69922 -0.81765,7.60677 -0.4055,1.05503 -0.63666,1.91823 -0.51367,1.91823 0.12298,0 0.30567,-0.26789 0.40598,-0.59531 1.08079,-3.52786 6.56965,-8.2846 9.93258,-8.60773 2.88351,-0.27707 3.06303,1.30144 0.88717,7.8006 -1.65468,4.94241 -1.78426,6.24186 -0.63578,6.37572 1.26536,0.14749 5.35683,-3.82753 5.93599,-5.76703 2.75993,-9.24256 15.3484,-12.06327 15.35044,-3.43958 l 5.9e-4,2.51354 0.71004,0.082 c 0.87604,0.10121 2.18633,-0.53825 3.33291,-1.62656 0.96417,-0.91517 1.69946,-0.78285 1.86516,0.33565 0.21635,1.46036 -3.95944,3.78144 -6.05063,3.3632 -0.66964,-0.13393 -0.78487,-0.0196 -1.55268,1.54 -3.48315,7.07528 -14.04751,8.61169 -14.04751,2.04299 0,-0.75389 0.12052,-0.82395 -1.88779,1.0974 -6.15433,5.88783 -9.49327,3.34036 -6.67934,-5.09608 3.30083,-9.89621 -2.77474,-6.89509 -8.23391,4.06728 -2.69029,5.40228 -5.4432,5.7078 -4.18314,0.46424 0.12734,-0.52993 -0.0726,-0.44338 -1.53942,0.66645 -3.47314,2.62781 -7.08062,3.58625 -9.81931,2.6088 z m 40.25873,-2.52287 c 1.29446,-0.66038 2.87328,-2.45304 3.96593,-4.50307 l 0.85549,-1.60506 -0.65734,-0.7812 c -0.92206,-1.09581 -1.31228,-2.46863 -1.17437,-4.13159 0.17784,-2.14451 -1.91343,-1.70013 -4.37287,0.92921 -4.76666,5.09595 -3.72479,12.69759 1.38316,10.09171 z m -36.70798,-6.20009 c 4.60479,-2.17841 6.77519,-7.79363 2.5196,-6.51862 -1.8927,0.56707 -5.74202,5.46805 -5.74202,7.31078 0,0.32573 1.78905,-0.11406 3.22242,-0.79216 z m -65.452304,-11.2872 c -0.247325,-0.14422 -1.619721,-1.65865 -3.049771,-3.36539 C -4.5651731,129.28389 31.071662,47.480343 101.29359,44.944295 162.37208,42.73846 205.24688,104.7004 181.78625,161.27093 c -4.15319,10.01456 -14.97992,25.92916 -17.63966,25.92916 -2.30495,0 -2.07709,-1.70992 0.65336,-4.90309 C 208.94487,130.67098 176.09171,52.354354 108.58376,48.286665 37.771717,44.019889 -2.7195971,128.18546 44.116682,182.28844 c 2.407854,2.78144 2.741534,3.61447 1.792016,4.47377 -0.542699,0.49113 -1.278373,0.55133 -1.950202,0.15957 z m 41.210516,-0.30973 c -1.03885,-1.48316 0.25076,-4.14511 2.01829,-4.16604 1.9598,-0.0232 2.97008,1.26665 2.22155,2.83633 -0.82535,1.73078 -3.39455,2.53654 -4.23984,1.32971 z m 41.458428,0.42494 c -1.97602,-0.86981 1.60076,-3.36043 3.90261,-2.71749 0.65484,0.18291 2.02406,0.34428 3.0427,0.3586 2.67523,0.0376 3.17667,0.56 1.83013,1.90654 -0.65248,0.65248 -0.76923,0.67458 -2.57968,0.48819 -2.41178,-0.2483 -3.77333,-0.26361 -4.93899,-0.0555 -0.50932,0.0909 -1.07487,0.0998 -1.25677,0.0197 z M 79.862342,171.43298 c -19.961228,-4.44229 -23.258013,-29.50024 -5.872137,-44.63247 4.226017,-3.67822 7.098817,-6.65637 9.386197,-9.73041 6.11509,-8.21816 8.65105,-10.27403 14.54674,-11.7929 10.965168,-2.82489 19.424738,0.50198 27.330148,10.74803 3.45841,4.48238 5.60126,6.74307 9.75447,10.29088 12.78944,10.92518 15.5453,26.65256 6.62323,37.79803 -6.12015,7.64531 -14.05937,9.30989 -28.43115,5.96103 -3.07332,-0.71613 -4.74479,-0.95381 -7.40833,-1.05343 -3.66232,-0.13699 -3.23809,-0.20002 -13.096878,1.94601 -3.96028,0.86206 -10.0561,1.08307 -12.83229,0.46523 z m 11.1125,-3.56534 c 1.45521,-0.26868 3.95552,-0.78911 5.55625,-1.1565 6.403978,-1.46983 10.227058,-1.53822 15.610408,-0.27925 6.51281,1.52311 8.04118,1.77864 11.44284,1.91316 12.20577,0.4827 20.1122,-7.81853 19.57118,-20.54845 -0.33368,-7.85128 -2.99954,-12.50644 -11.15657,-19.48174 -3.98081,-3.40411 -6.37735,-6.00068 -9.99797,-10.83247 -9.83862,-13.12986 -25.135858,-13.30668 -34.335288,-0.39688 -3.33438,4.67922 -5.85255,7.50426 -9.458,10.61059 -9.371986,8.07457 -11.984851,12.67933 -11.992544,21.13495 -0.01261,13.85725 10.216264,21.72177 24.759694,19.03659 z m 6.87917,-6.50395 c -0.43657,-0.0509 -1.92485,-0.22087 -3.3073,-0.37773 -10.06052,-1.14151 -17.99166,-4.96625 -17.99166,-8.67636 0,-3.84336 3.93677,-17.76924 5.3645,-18.97632 8.57085,-7.24628 42.814478,-5.98685 46.745828,1.71924 0.27568,0.54037 1.21638,3.83284 2.09045,7.31659 0.87408,3.48376 1.77616,6.85509 2.00464,7.49185 2.64864,7.38172 -16.40303,13.65981 -34.906458,11.50273 z m 15.348508,-3.65747 c 8.97418,-1.00272 16.6272,-4.03826 16.19831,-6.425 -0.13231,-0.73634 -2.50796,-10.26376 -2.69702,-10.81629 -0.0667,-0.19502 -0.69135,-0.0202 -1.77637,0.49715 -9.29217,4.43068 -31.866078,4.32973 -40.362978,-0.18052 l -1.64788,-0.87471 -0.65486,2.14923 c -2.04436,6.70951 -2.40748,9.89299 -1.25158,10.97276 4.13673,3.86428 19.496358,6.09595 32.192378,4.67738 z m 1.14718,-17.46977 c 9.48805,-1.47957 12.58862,-3.31739 8.79545,-5.2134 -8.13725,-4.06738 -29.825698,-4.08561 -37.390938,-0.0314 -6.46773,3.46603 14.886208,7.38266 28.595488,5.24483 z M 63.39888,123.12731 C 54.338037,122.09625 46.424455,107.5864 49.136758,96.977175 c 3.280049,-12.829974 17.474957,-11.96869 24.20634,1.468732 6.363104,12.702253 1.03337,25.930573 -9.944218,24.681403 z m 4.632154,-4.03123 c 9.462178,-4.81663 2.861367,-27.008317 -8.219736,-27.634455 -7.450743,-0.421005 -10.177854,10.054115 -5.203108,19.985685 1.457699,2.91014 4.235604,6.31944 4.931511,6.0524 0.205746,-0.079 0.30968,-0.0393 0.230964,0.088 -0.91045,1.47314 5.89008,2.71492 8.260369,1.50835 z m 74.405256,4.04893 c -10.74214,-2.09787 -12.17416,-18.73094 -2.57717,-29.934271 5.92937,-6.92183 15.4401,-6.790907 19.18862,0.264147 6.48685,12.208854 -4.60229,32.015434 -16.61145,29.670124 z m 5.42396,-4.1943 c 7.93499,-3.62936 12.36713,-18.17916 7.55943,-24.816003 -3.35269,-4.628255 -10.37073,-2.897946 -14.68937,3.621689 -7.65828,11.561344 -2.87779,25.771724 7.12994,21.194314 z M 85.821882,100.80329 C 72.481349,97.062469 69.449137,71.172727 81.452262,63.494422 c 11.81155,-7.555761 24.778478,11.238301 19.291098,27.960212 -2.384808,7.267304 -8.555888,11.133626 -14.921478,9.348656 z m 6.34358,-3.973636 c 9.220068,-4.659345 7.72061,-26.075954 -2.14729,-30.669566 -10.6796,-4.971469 -17.098881,15.846062 -8.46428,27.449409 0.55076,0.740121 1.0851,1.206661 1.29137,1.12751 0.19352,-0.07426 0.28981,-0.03463 0.21398,0.08807 -1.12886,1.826528 6.24602,3.449976 9.10622,2.004574 z m 25.316678,3.952536 c -11.14327,-3.424125 -13.29035,-24.739311 -3.48855,-34.632719 7.31318,-7.381534 16.9327,-4.514266 20.4769,6.103506 5.00506,14.994209 -5.20986,32.148533 -16.98835,28.529213 z m 6.57844,-3.909146 c 6.27745,-2.873909 9.85925,-13.87523 7.3578,-22.599093 -3.19547,-11.14432 -12.66533,-11.783853 -17.85725,-1.205962 -6.26218,12.758443 0.60746,28.333761 10.49945,23.805055 z"
       id="path4" /></g></svg>
